<svg xmlns="http://www.w3.org/2000/svg" viewBox="0 0 720 480" role="img" aria-label="AlphaGo board and search diagram">
  <rect width="720" height="480" rx="24" fill="#f7fbff"/>
  <text x="360" y="46" text-anchor="middle" font-family="Arial, sans-serif" font-size="28" font-weight="700" fill="#003366">AlphaGo: Learning + Tree Search</text>
  <rect x="55" y="82" width="320" height="320" rx="12" fill="#d9a85f" stroke="#8b5a18" stroke-width="5"/>
  <g stroke="#5b3710" stroke-width="2">
    <line x1="79" y1="106" x2="351" y2="106"/><line x1="79" y1="140" x2="351" y2="140"/><line x1="79" y1="174" x2="351" y2="174"/><line x1="79" y1="208" x2="351" y2="208"/><line x1="79" y1="242" x2="351" y2="242"/><line x1="79" y1="276" x2="351" y2="276"/><line x1="79" y1="310" x2="351" y2="310"/><line x1="79" y1="344" x2="351" y2="344"/><line x1="79" y1="378" x2="351" y2="378"/>
    <line x1="79" y1="106" x2="79" y2="378"/><line x1="113" y1="106" x2="113" y2="378"/><line x1="147" y1="106" x2="147" y2="378"/><line x1="181" y1="106" x2="181" y2="378"/><line x1="215" y1="106" x2="215" y2="378"/><line x1="249" y1="106" x2="249" y2="378"/><line x1="283" y1="106" x2="283" y2="378"/><line x1="317" y1="106" x2="317" y2="378"/><line x1="351" y1="106" x2="351" y2="378"/>
  </g>
  <g>
    <circle cx="147" cy="174" r="13" fill="#111"/><circle cx="181" cy="208" r="13" fill="#111"/><circle cx="249" cy="208" r="13" fill="#111"/><circle cx="283" cy="276" r="13" fill="#111"/>
    <circle cx="181" cy="174" r="13" fill="#fff" stroke="#111" stroke-width="2"/><circle cx="215" cy="208" r="13" fill="#fff" stroke="#111" stroke-width="2"/><circle cx="249" cy="242" r="13" fill="#fff" stroke="#111" stroke-width="2"/><circle cx="317" cy="276" r="13" fill="#fff" stroke="#111" stroke-width="2"/>
    <circle cx="215" cy="242" r="16" fill="#fff" stroke="#0066cc" stroke-width="5"/><text x="215" y="249" text-anchor="middle" font-family="Arial, sans-serif" font-size="15" font-weight="700" fill="#0066cc">37</text>
  </g>
  <text x="215" y="432" text-anchor="middle" font-family="Arial, sans-serif" font-size="18" fill="#003366">Go position and candidate move</text>
  <defs><marker id="arrow" markerWidth="10" markerHeight="10" refX="8" refY="3" orient="auto"><path d="M0,0 L0,6 L9,3 z" fill="#0066cc"/></marker></defs>
  <path d="M392 158 H445" stroke="#0066cc" stroke-width="6" marker-end="url(#arrow)"/>
  <rect x="458" y="112" width="190" height="76" rx="14" fill="#e6f0ff" stroke="#0066cc" stroke-width="4"/>
  <text x="553" y="159" text-anchor="middle" font-family="Arial, sans-serif" font-size="21" font-weight="700" fill="#003366">policy network</text>
  <rect x="458" y="214" width="190" height="76" rx="14" fill="#fff4e6" stroke="#e07000" stroke-width="4"/>
  <text x="553" y="261" text-anchor="middle" font-family="Arial, sans-serif" font-size="21" font-weight="700" fill="#7a3f00">value network</text>
  <rect x="458" y="316" width="190" height="76" rx="14" fill="#e8f8e8" stroke="#1a8a3a" stroke-width="4"/>
  <text x="553" y="363" text-anchor="middle" font-family="Arial, sans-serif" font-size="21" font-weight="700" fill="#0d5c25">tree search</text>
  <path d="M553 188 V207 M553 290 V309" stroke="#0066cc" stroke-width="5" marker-end="url(#arrow)"/>
</svg>
