<svg xmlns="http://www.w3.org/2000/svg" viewBox="0 0 900 500" role="img" aria-label="Causal attention mask">
  <rect width="900" height="500" rx="26" fill="#f7fbff"/>
  <text x="450" y="52" text-anchor="middle" font-family="Arial, sans-serif" font-size="30" font-weight="700" fill="#003366">Causal Mask: No Looking Ahead</text>
  <defs>
    <marker id="arrow" markerWidth="10" markerHeight="10" refX="8" refY="3" orient="auto"><path d="M0,0 L0,6 L9,3 z" fill="#0066cc"/></marker>
  </defs>
  <rect x="70" y="130" width="265" height="235" rx="18" fill="white" stroke="#0066cc" stroke-width="4"/>
  <text x="202" y="168" text-anchor="middle" font-family="Arial, sans-serif" font-size="22" font-weight="700" fill="#003366">sequence</text>
  <rect x="105" y="205" width="78" height="44" rx="10" fill="#e6f0ff" stroke="#0066cc" stroke-width="3"/>
  <text x="144" y="233" text-anchor="middle" font-family="Arial, sans-serif" font-size="16" fill="#003366">The</text>
  <rect x="200" y="205" width="92" height="44" rx="10" fill="#e6f0ff" stroke="#0066cc" stroke-width="3"/>
  <text x="246" y="233" text-anchor="middle" font-family="Arial, sans-serif" font-size="16" fill="#003366">proof</text>
  <rect x="105" y="270" width="78" height="44" rx="10" fill="#fff4e6" stroke="#e07000" stroke-width="3"/>
  <text x="144" y="298" text-anchor="middle" font-family="Arial, sans-serif" font-size="16" fill="#7a3f00">uses</text>
  <rect x="200" y="270" width="92" height="44" rx="10" fill="#fff4e6" stroke="#e07000" stroke-width="3"/>
  <text x="246" y="298" text-anchor="middle" font-family="Arial, sans-serif" font-size="16" fill="#7a3f00">induction</text>
  <path d="M335 248 H405" stroke="#0066cc" stroke-width="6" marker-end="url(#arrow)"/>
  <rect x="430" y="88" width="360" height="360" rx="20" fill="white" stroke="#003366" stroke-width="4"/>
  <text x="610" y="124" text-anchor="middle" font-family="Arial, sans-serif" font-size="21" font-weight="700" fill="#003366">attention matrix</text>
  <text x="610" y="154" text-anchor="middle" font-family="Arial, sans-serif" font-size="15" fill="#003366">row = position being updated; column = token used as context</text>
  <g stroke="#d0d7e8" stroke-width="2">
    <rect x="500" y="190" width="208" height="208" fill="none"/>
    <line x1="552" y1="190" x2="552" y2="398"/><line x1="604" y1="190" x2="604" y2="398"/><line x1="656" y1="190" x2="656" y2="398"/>
    <line x1="500" y1="242" x2="708" y2="242"/><line x1="500" y1="294" x2="708" y2="294"/><line x1="500" y1="346" x2="708" y2="346"/>
  </g>
  <g>
    <rect x="501" y="191" width="50" height="50" fill="#e6f0ff"/>
    <rect x="501" y="243" width="50" height="50" fill="#e6f0ff"/><rect x="553" y="243" width="50" height="50" fill="#e6f0ff"/>
    <rect x="501" y="295" width="50" height="50" fill="#e6f0ff"/><rect x="553" y="295" width="50" height="50" fill="#e6f0ff"/><rect x="605" y="295" width="50" height="50" fill="#e6f0ff"/>
    <rect x="501" y="347" width="50" height="50" fill="#e6f0ff"/><rect x="553" y="347" width="50" height="50" fill="#e6f0ff"/><rect x="605" y="347" width="50" height="50" fill="#e6f0ff"/><rect x="657" y="347" width="50" height="50" fill="#e6f0ff"/>
    <rect x="553" y="191" width="154" height="50" fill="#eeeeee"/>
    <rect x="605" y="243" width="102" height="50" fill="#eeeeee"/>
    <rect x="657" y="295" width="50" height="50" fill="#eeeeee"/>
  </g>
  <g font-family="Arial, sans-serif" font-size="17" font-weight="700" text-anchor="middle">
    <text x="526" y="223" fill="#0066cc">ok</text>
    <text x="578" y="275" fill="#0066cc">ok</text>
    <text x="630" y="327" fill="#0066cc">ok</text>
    <text x="682" y="379" fill="#0066cc">ok</text>
    <text x="630" y="223" fill="#999999">masked</text>
    <text x="656" y="275" fill="#999999">masked</text>
    <text x="682" y="327" fill="#999999">x</text>
  </g>
</svg>
