<?xml version="1.0" encoding="UTF-8" standalone="no"?>
<!-- Created with Inkscape (http://www.inkscape.org/) -->

<svg
   xmlns:dc="http://purl.org/dc/elements/1.1/"
   xmlns:cc="http://creativecommons.org/ns#"
   xmlns:rdf="http://www.w3.org/1999/02/22-rdf-syntax-ns#"
   xmlns:svg="http://www.w3.org/2000/svg"
   xmlns="http://www.w3.org/2000/svg"
   xmlns:sodipodi="http://sodipodi.sourceforge.net/DTD/sodipodi-0.dtd"
   xmlns:inkscape="http://www.inkscape.org/namespaces/inkscape"
   id="svg2985"
   version="1.1"
   inkscape:version="0.48.1 "
   width="200"
   height="196"
   sodipodi:docname="Th%C3%A9or%C3%A8me-de-Brouwer-dim-1[1].jpg">
  <metadata
     id="metadata2991">
    <rdf:RDF>
      <cc:Work
         rdf:about="">
        <dc:format>image/svg+xml</dc:format>
        <dc:type
           rdf:resource="http://purl.org/dc/dcmitype/StillImage" />
        <dc:title></dc:title>
      </cc:Work>
    </rdf:RDF>
  </metadata>
  <defs
     id="defs2989" />
  <sodipodi:namedview
     pagecolor="#ffffff"
     bordercolor="#666666"
     borderopacity="1"
     objecttolerance="10"
     gridtolerance="10"
     guidetolerance="10"
     inkscape:pageopacity="0"
     inkscape:pageshadow="2"
     inkscape:window-width="1264"
     inkscape:window-height="746"
     id="namedview2987"
     showgrid="false"
     showguides="true"
     inkscape:guide-bbox="true"
     inkscape:zoom="2.0996742"
     inkscape:cx="221.92856"
     inkscape:cy="87.321756"
     inkscape:window-x="94"
     inkscape:window-y="-8"
     inkscape:window-maximized="1"
     inkscape:current-layer="svg2985">
    <sodipodi:guide
       orientation="1,0"
       position="79.140894,93.285223"
       id="guide3906" />
  </sodipodi:namedview>
  <g
     id="g5030"
     transform="matrix(0.97938691,0,0,0.97938691,4.6980595,2.0678433)">
    <path
       sodipodi:nodetypes="cc"
       inkscape:connector-curvature="0"
       id="path3904-03-7"
       d="M 193.60146,5.6221825 24.765742,173.72578"
       style="fill:none;stroke:#00ff00;stroke-width:1.53157043;stroke-linecap:butt;stroke-linejoin:miter;stroke-miterlimit:4;stroke-opacity:1;stroke-dasharray:none" />
    <path
       sodipodi:nodetypes="ccccc"
       inkscape:connector-curvature="0"
       id="rect3901"
       d="m 23.237122,5.725086 171.079038,-0.3367698 0,168.7216538 -171.079038,0 z"
       style="fill:none;stroke:#000000;stroke-width:1.02104688" />
    <g
       id="g3968">
      <g
         id="g3908"
         transform="translate(0.16838488,0.33676976)">
        <path
           sodipodi:nodetypes="cc"
           inkscape:connector-curvature="0"
           id="path3904"
           d="m 91.43299,174.10996 0,5.93558"
           style="fill:none;stroke:#000000;stroke-width:1.02104688px;stroke-linecap:butt;stroke-linejoin:miter;stroke-opacity:1" />
      </g>
      <g
         id="g3908-1"
         transform="translate(-33.761169,0.14733588)">
        <path
           sodipodi:nodetypes="cc"
           inkscape:connector-curvature="0"
           id="path3904-0"
           d="m 91.43299,174.10996 0,5.93558"
           style="fill:none;stroke:#000000;stroke-width:1.02104688px;stroke-linecap:butt;stroke-linejoin:miter;stroke-opacity:1" />
      </g>
      <g
         id="g3908-9"
         transform="translate(-68.280069,-0.10524144)">
        <path
           sodipodi:nodetypes="cc"
           inkscape:connector-curvature="0"
           id="path3904-3"
           d="m 91.43299,174.10996 0,5.93558"
           style="fill:none;stroke:#000000;stroke-width:1.02104688px;stroke-linecap:butt;stroke-linejoin:miter;stroke-opacity:1" />
      </g>
      <g
         id="g3908-4"
         transform="translate(33.929553,0.23152836)">
        <path
           sodipodi:nodetypes="cc"
           inkscape:connector-curvature="0"
           id="path3904-7"
           d="m 91.43299,174.10996 0,5.93558"
           style="fill:none;stroke:#000000;stroke-width:1.02104688px;stroke-linecap:butt;stroke-linejoin:miter;stroke-opacity:1" />
      </g>
      <g
         id="g3908-14"
         transform="translate(67.017182,0.23152832)">
        <path
           sodipodi:nodetypes="cc"
           inkscape:connector-curvature="0"
           id="path3904-30"
           d="m 91.43299,174.10996 0,5.93558"
           style="fill:none;stroke:#000000;stroke-width:1.02104688px;stroke-linecap:butt;stroke-linejoin:miter;stroke-opacity:1" />
      </g>
      <g
         id="g3908-41"
         transform="translate(100.86254,0.06314344)">
        <path
           sodipodi:nodetypes="cc"
           inkscape:connector-curvature="0"
           id="path3904-5"
           d="m 91.43299,174.10996 0,5.93558"
           style="fill:none;stroke:#000000;stroke-width:1.02104688px;stroke-linecap:butt;stroke-linejoin:miter;stroke-opacity:1" />
      </g>
    </g>
    <g
       id="g3968-3"
       transform="matrix(0,1,-1,0,197.23131,-17.975084)">
      <g
         id="g3908-3"
         transform="translate(0.16838488,0.33676976)">
        <path
           sodipodi:nodetypes="cc"
           inkscape:connector-curvature="0"
           id="path3904-05"
           d="m 91.43299,174.10996 0,5.93558"
           style="fill:none;stroke:#000000;stroke-width:1.02104688px;stroke-linecap:butt;stroke-linejoin:miter;stroke-opacity:1" />
      </g>
      <g
         id="g3908-1-5"
         transform="translate(-33.761169,0.14733588)">
        <path
           sodipodi:nodetypes="cc"
           inkscape:connector-curvature="0"
           id="path3904-0-5"
           d="m 91.43299,174.10996 0,5.93558"
           style="fill:none;stroke:#000000;stroke-width:1.02104688px;stroke-linecap:butt;stroke-linejoin:miter;stroke-opacity:1" />
      </g>
      <g
         id="g3908-9-5"
         transform="translate(-68.280069,-0.10524144)">
        <path
           sodipodi:nodetypes="cc"
           inkscape:connector-curvature="0"
           id="path3904-3-3"
           d="m 91.43299,174.10996 0,5.93558"
           style="fill:none;stroke:#000000;stroke-width:1.02104688px;stroke-linecap:butt;stroke-linejoin:miter;stroke-opacity:1" />
      </g>
      <g
         id="g3908-4-9"
         transform="translate(33.929553,0.23152836)">
        <path
           sodipodi:nodetypes="cc"
           inkscape:connector-curvature="0"
           id="path3904-7-9"
           d="m 91.43299,174.10996 0,5.93558"
           style="fill:none;stroke:#000000;stroke-width:1.02104688px;stroke-linecap:butt;stroke-linejoin:miter;stroke-opacity:1" />
      </g>
      <g
         id="g3908-14-3"
         transform="translate(67.017182,0.23152832)">
        <path
           sodipodi:nodetypes="cc"
           inkscape:connector-curvature="0"
           id="path3904-30-4"
           d="m 91.43299,174.10996 0,5.93558"
           style="fill:none;stroke:#000000;stroke-width:1.02104688px;stroke-linecap:butt;stroke-linejoin:miter;stroke-opacity:1" />
      </g>
      <g
         id="g3908-41-6"
         transform="translate(100.86254,0.06314344)">
        <path
           sodipodi:nodetypes="cc"
           inkscape:connector-curvature="0"
           id="path3904-5-3"
           d="m 91.43299,174.10996 0,5.93558"
           style="fill:none;stroke:#000000;stroke-width:1.02104688px;stroke-linecap:butt;stroke-linejoin:miter;stroke-opacity:1" />
      </g>
    </g>
    <path
       sodipodi:nodetypes="cc"
       inkscape:connector-curvature="0"
       id="path3904-03"
       d="m 23.348926,5.4249128 0,168.3417272"
       style="fill:none;stroke:#0000ff;stroke-width:3.06314087;stroke-linecap:butt;stroke-linejoin:miter;stroke-miterlimit:4;stroke-opacity:1;stroke-dasharray:none" />
    <path
       sodipodi:nodetypes="cc"
       inkscape:connector-curvature="0"
       id="path3904-03-6"
       d="m 193.74096,5.5524353 0,168.3417247"
       style="fill:none;stroke:#ff0000;stroke-width:3.06314087;stroke-linecap:butt;stroke-linejoin:miter;stroke-miterlimit:4;stroke-opacity:1;stroke-dasharray:none" />
    <path
       sodipodi:nodetypes="cc"
       inkscape:connector-curvature="0"
       id="path3904-03-7-7"
       d="M 192.52987,83.848603 C 140.74978,46.498465 105.31332,11.326184 24.884811,5.9616599"
       style="fill:none;stroke:#008080;stroke-width:1.53157043;stroke-linecap:butt;stroke-linejoin:miter;stroke-miterlimit:4;stroke-opacity:1;stroke-dasharray:none" />
    <g
       style="font-size:12.62117386px;font-style:normal;font-variant:normal;font-weight:normal;font-stretch:normal;line-height:125%;letter-spacing:0px;word-spacing:0px;fill:#000000;fill-opacity:1;stroke:none;font-family:Arial;-inkscape-font-specification:Arial"
       id="text4865-1-4">
      <path
         d="m 149.76714,190.27799 c 0,-1.06819 0.10991,-1.92788 0.32971,-2.57908 0.2198,-0.65118 0.54642,-1.15344 0.97986,-1.50678 0.43344,-0.35331 0.97884,-0.52998 1.6362,-0.52999 0.48479,1e-5 0.91002,0.0976 1.27567,0.29273 0.36565,0.19516 0.66762,0.47659 0.90592,0.84429 0.23828,0.36771 0.42522,0.81553 0.5608,1.34346 0.13557,0.52795 0.20336,1.23973 0.20337,2.13537 -1e-5,1.05999 -0.10888,1.91557 -0.32662,2.56676 -0.21776,0.65119 -0.54335,1.15448 -0.97679,1.50986 -0.43344,0.35538 -0.9809,0.53307 -1.64235,0.53307 -0.871,0 -1.55506,-0.31224 -2.05218,-0.93673 -0.59572,-0.75184 -0.89359,-1.97616 -0.89359,-3.67296 z m 1.1401,0 c 0,1.48316 0.17358,2.47021 0.52075,2.96117 0.34716,0.49096 0.77547,0.73644 1.28492,0.73644 0.50944,0 0.93775,-0.2465 1.28492,-0.73952 0.34716,-0.49301 0.52074,-1.47904 0.52074,-2.95809 0,-1.48725 -0.17358,-2.47533 -0.52074,-2.96425 -0.34717,-0.4889 -0.77959,-0.73335 -1.29725,-0.73336 -0.50945,1e-5 -0.91619,0.2157 -1.22021,0.64708 -0.38209,0.55054 -0.57313,1.56739 -0.57313,3.05053 z"
         style=""
         id="path5090" />
      <path
         d="m 157.41503,194.73361 0,-1.26335 1.26335,0 0,1.26335 z"
         style=""
         id="path5092" />
      <path
         d="m 162.00007,189.83428 c -0.46015,-0.16844 -0.80115,-0.40879 -1.02301,-0.72103 -0.22185,-0.31224 -0.33278,-0.68611 -0.33278,-1.12161 0,-0.65735 0.23623,-1.20993 0.70871,-1.65776 0.47247,-0.44782 1.10106,-0.67173 1.88578,-0.67174 0.78882,1e-5 1.42357,0.22906 1.90427,0.68714 0.48068,0.4581 0.72103,1.01583 0.72103,1.67317 0,0.41907 -0.10991,0.78369 -0.3297,1.09388 -0.21981,0.31019 -0.55362,0.54951 -1.00144,0.71795 0.55464,0.18078 0.97678,0.47248 1.26643,0.8751 0.28964,0.40263 0.43447,0.88332 0.43447,1.44207 0,0.77239 -0.27322,1.42152 -0.81963,1.94741 -0.54643,0.52588 -1.26541,0.78882 -2.15694,0.78882 -0.89154,0 -1.61052,-0.26397 -2.15694,-0.79191 -0.54643,-0.52793 -0.81964,-1.18631 -0.81964,-1.97514 0,-0.5875 0.14893,-1.07949 0.4468,-1.47596 0.29786,-0.39646 0.72205,-0.66659 1.27259,-0.81039 z m -0.22186,-1.87962 c 0,0.42729 0.13763,0.77651 0.4129,1.04766 0.27527,0.27116 0.6327,0.40674 1.07231,0.40673 0.42727,1e-5 0.77752,-0.13454 1.05074,-0.40365 0.2732,-0.2691 0.40981,-0.5988 0.40982,-0.98911 -1e-5,-0.40673 -0.14072,-0.74876 -0.42215,-1.02609 -0.28143,-0.27731 -0.63168,-0.41597 -1.05074,-0.41598 -0.42317,1e-5 -0.77444,0.13559 -1.05381,0.40674 -0.27938,0.27116 -0.41907,0.59573 -0.41907,0.9737 z m -0.35743,4.17214 c 0,0.31635 0.075,0.62243 0.22494,0.91824 0.14995,0.29581 0.37284,0.52485 0.66865,0.68714 0.2958,0.16228 0.61421,0.24342 0.95521,0.24342 0.52999,0 0.96754,-0.1705 1.31265,-0.5115 0.34511,-0.341 0.51766,-0.77444 0.51767,-1.30033 -1e-5,-0.53409 -0.1777,-0.97575 -0.53307,-1.32497 -0.35539,-0.34922 -0.80013,-0.52383 -1.33422,-0.52383 -0.52178,0 -0.9542,0.17256 -1.29725,0.51766 -0.34306,0.34512 -0.51458,0.77651 -0.51458,1.29417 z"
         style=""
         id="path5094" />
    </g>
    <g
       id="g4958">
      <g
         style="font-size:12.62117386px;font-style:normal;font-variant:normal;font-weight:normal;font-stretch:normal;line-height:125%;letter-spacing:0px;word-spacing:0px;fill:#000000;fill-opacity:1;stroke:none;font-family:Arial;-inkscape-font-specification:Arial"
         id="text4865">
        <path
           d="m 20.58027,190.27799 c 0,-1.06819 0.109901,-1.92788 0.329704,-2.57908 0.219801,-0.65118 0.546423,-1.15344 0.979866,-1.50678 0.43344,-0.35331 0.978837,-0.52998 1.636193,-0.52999 0.484793,1e-5 0.910018,0.0976 1.275675,0.29273 0.365647,0.19516 0.667618,0.47659 0.905914,0.84429 0.238285,0.36771 0.425219,0.81553 0.560804,1.34346 0.135573,0.52795 0.203362,1.23973 0.203369,2.13537 -7e-6,1.05999 -0.108881,1.91557 -0.326622,2.56676 -0.217754,0.65119 -0.543349,1.15448 -0.976786,1.50986 -0.433446,0.35538 -0.980897,0.53307 -1.642354,0.53307 -0.870996,0 -1.555053,-0.31224 -2.052174,-0.93673 -0.595727,-0.75184 -0.893589,-1.97616 -0.893589,-3.67296 z m 1.140097,0 c -2e-6,1.48316 0.17358,2.47021 0.520746,2.96117 0.347162,0.49096 0.775468,0.73644 1.28492,0.73644 0.509444,0 0.93775,-0.2465 1.284919,-0.73952 0.347159,-0.49301 0.520741,-1.47904 0.520747,-2.95809 -6e-6,-1.48725 -0.173588,-2.47533 -0.520747,-2.96425 -0.347169,-0.4889 -0.779583,-0.73335 -1.297245,-0.73336 -0.509451,1e-5 -0.916188,0.2157 -1.220211,0.64708 -0.382088,0.55054 -0.573131,1.56739 -0.573129,3.05053 z"
           style=""
           id="path5097" />
      </g>
      <g
         style="font-size:12.62117386px;font-style:normal;font-variant:normal;font-weight:normal;font-stretch:normal;line-height:125%;letter-spacing:0px;word-spacing:0px;fill:#000000;fill-opacity:1;stroke:none;font-family:Arial;-inkscape-font-specification:Arial"
         id="text4865-1">
        <path
           d="m 49.085165,190.27799 c -1e-6,-1.06819 0.1099,-1.92788 0.329703,-2.57908 0.219801,-0.65118 0.546423,-1.15344 0.979867,-1.50678 0.433439,-0.35331 0.978836,-0.52998 1.636192,-0.52999 0.484794,1e-5 0.910018,0.0976 1.275675,0.29273 0.365647,0.19516 0.667619,0.47659 0.905914,0.84429 0.238285,0.36771 0.425219,0.81553 0.560805,1.34346 0.135572,0.52795 0.203362,1.23973 0.203368,2.13537 -6e-6,1.05999 -0.10888,1.91557 -0.326622,2.56676 -0.217754,0.65119 -0.543349,1.15448 -0.976785,1.50986 -0.433447,0.35538 -0.980898,0.53307 -1.642355,0.53307 -0.870995,0 -1.555052,-0.31224 -2.052173,-0.93673 -0.595727,-0.75184 -0.89359,-1.97616 -0.893589,-3.67296 z m 1.140096,0 c -2e-6,1.48316 0.17358,2.47021 0.520746,2.96117 0.347162,0.49096 0.775468,0.73644 1.28492,0.73644 0.509444,0 0.93775,-0.2465 1.284919,-0.73952 0.347159,-0.49301 0.520742,-1.47904 0.520747,-2.95809 -5e-6,-1.48725 -0.173588,-2.47533 -0.520747,-2.96425 -0.347169,-0.4889 -0.779583,-0.73335 -1.297245,-0.73336 -0.509451,1e-5 -0.916188,0.2157 -1.220211,0.64708 -0.382088,0.55054 -0.573131,1.56739 -0.573129,3.05053 z"
           style=""
           id="path5100" />
        <path
           d="m 56.733054,194.73361 0,-1.26335 1.26335,0 0,1.26335 z"
           style=""
           id="path5102" />
        <path
           d="m 65.440924,193.66747 0,1.06614 -5.971639,0 c -0.0082,-0.26705 0.03492,-0.52383 0.129416,-0.77033 0.152012,-0.40674 0.395438,-0.80731 0.730278,-1.20173 0.334837,-0.39441 0.818607,-0.85044 1.451312,-1.36811 0.981917,-0.80525 1.645431,-1.44309 1.990546,-1.91351 0.345105,-0.47042 0.51766,-0.91516 0.517665,-1.33423 -5e-6,-0.43959 -0.157153,-0.81038 -0.471445,-1.11236 -0.314301,-0.30196 -0.724119,-0.45295 -1.229455,-0.45296 -0.534102,1e-5 -0.961381,0.16024 -1.281838,0.48069 -0.320461,0.32047 -0.482745,0.76418 -0.486852,1.33114 l -1.140096,-0.11709 c 0.07806,-0.85044 0.371814,-1.49855 0.881263,-1.94433 0.509447,-0.44575 1.193504,-0.66864 2.052174,-0.66865 0.866879,1e-5 1.552991,0.24036 2.058336,0.72104 0.505334,0.48069 0.758003,1.07642 0.75801,1.78718 -7e-6,0.36155 -0.07396,0.71693 -0.221857,1.06614 -0.14791,0.34922 -0.39339,0.71693 -0.736441,1.10312 -0.343061,0.3862 -0.913108,0.91619 -1.710144,1.58997 -0.665573,0.55875 -1.092852,0.93776 -1.281838,1.13702 -0.188991,0.19926 -0.345112,0.39954 -0.468364,0.60086 z"
           style=""
           id="path5104" />
      </g>
      <g
         style="font-size:12.62117386px;font-style:normal;font-variant:normal;font-weight:normal;font-stretch:normal;line-height:125%;letter-spacing:0px;word-spacing:0px;fill:#000000;fill-opacity:1;stroke:none;font-family:Arial;-inkscape-font-specification:Arial"
         id="text4865-1-9">
        <path
           d="m 83.591882,190.27799 c 0,-1.06819 0.109901,-1.92788 0.329704,-2.57908 0.219801,-0.65118 0.546423,-1.15344 0.979866,-1.50678 0.43344,-0.35331 0.978837,-0.52998 1.636192,-0.52999 0.484794,1e-5 0.910019,0.0976 1.275676,0.29273 0.365647,0.19516 0.667618,0.47659 0.905914,0.84429 0.238285,0.36771 0.425219,0.81553 0.560804,1.34346 0.135573,0.52795 0.203362,1.23973 0.203369,2.13537 -7e-6,1.05999 -0.108881,1.91557 -0.326622,2.56676 -0.217754,0.65119 -0.543349,1.15448 -0.976786,1.50986 -0.433446,0.35538 -0.980897,0.53307 -1.642355,0.53307 -0.870995,0 -1.555052,-0.31224 -2.052173,-0.93673 -0.595727,-0.75184 -0.893589,-1.97616 -0.893589,-3.67296 z m 1.140096,0 c -10e-7,1.48316 0.173581,2.47021 0.520747,2.96117 0.347162,0.49096 0.775468,0.73644 1.284919,0.73644 0.509445,0 0.937751,-0.2465 1.28492,-0.73952 0.347159,-0.49301 0.520741,-1.47904 0.520746,-2.95809 -5e-6,-1.48725 -0.173587,-2.47533 -0.520746,-2.96425 -0.347169,-0.4889 -0.779584,-0.73335 -1.297245,-0.73336 -0.509451,1e-5 -0.916188,0.2157 -1.220211,0.64708 -0.382088,0.55054 -0.573131,1.56739 -0.57313,3.05053 z"
           style=""
           id="path5107" />
        <path
           d="m 91.239771,194.73361 0,-1.26335 1.26335,0 0,1.26335 z"
           style=""
           id="path5109" />
        <path
           d="m 97.673612,194.73361 0,-2.1631 -3.919466,0 0,-1.01684 4.122834,-5.85455 0.905915,0 0,5.85455 1.220215,0 0,1.01684 -1.220215,0 0,2.1631 z m 0,-3.17994 0,-4.07354 -2.828672,4.07354 z"
           style=""
           id="path5111" />
      </g>
      <g
         style="font-size:12.62117386px;font-style:normal;font-variant:normal;font-weight:normal;font-stretch:normal;line-height:125%;letter-spacing:0px;word-spacing:0px;fill:#000000;fill-opacity:1;stroke:none;font-family:Arial;-inkscape-font-specification:Arial"
         id="text4865-1-6">
        <path
           d="m 116.59531,190.27799 c 0,-1.06819 0.1099,-1.92788 0.3297,-2.57908 0.2198,-0.65118 0.54642,-1.15344 0.97987,-1.50678 0.43344,-0.35331 0.97883,-0.52998 1.63619,-0.52999 0.48479,1e-5 0.91002,0.0976 1.27568,0.29273 0.36564,0.19516 0.66761,0.47659 0.90591,0.84429 0.23828,0.36771 0.42522,0.81553 0.5608,1.34346 0.13558,0.52795 0.20337,1.23973 0.20337,2.13537 0,1.05999 -0.10888,1.91557 -0.32662,2.56676 -0.21775,0.65119 -0.54335,1.15448 -0.97679,1.50986 -0.43344,0.35538 -0.98089,0.53307 -1.64235,0.53307 -0.87099,0 -1.55505,-0.31224 -2.05217,-0.93673 -0.59573,-0.75184 -0.89359,-1.97616 -0.89359,-3.67296 z m 1.14009,0 c 0,1.48316 0.17358,2.47021 0.52075,2.96117 0.34716,0.49096 0.77547,0.73644 1.28492,0.73644 0.50944,0 0.93775,-0.2465 1.28492,-0.73952 0.34716,-0.49301 0.52074,-1.47904 0.52075,-2.95809 -1e-5,-1.48725 -0.17359,-2.47533 -0.52075,-2.96425 -0.34717,-0.4889 -0.77958,-0.73335 -1.29725,-0.73336 -0.50945,1e-5 -0.91618,0.2157 -1.22021,0.64708 -0.38208,0.55054 -0.57313,1.56739 -0.57313,3.05053 z"
           style=""
           id="path5114" />
        <path
           d="m 124.2432,194.73361 0,-1.26335 1.26335,0 0,1.26335 z"
           style=""
           id="path5116" />
        <path
           d="m 132.87712,187.91152 -1.10313,0.0863 c -0.0986,-0.43549 -0.23829,-0.75184 -0.41906,-0.94905 -0.29992,-0.31635 -0.66968,-0.47452 -1.10928,-0.47453 -0.35333,1e-5 -0.66352,0.0986 -0.93057,0.29581 -0.34922,0.25473 -0.62448,0.62655 -0.82579,1.11544 -0.20132,0.48892 -0.30609,1.1853 -0.3143,2.08915 0.26705,-0.40673 0.59367,-0.7087 0.97986,-0.90591 0.3862,-0.1972 0.79088,-0.2958 1.21405,-0.29581 0.73952,1e-5 1.36914,0.27219 1.88887,0.81656 0.51971,0.54437 0.77957,1.24794 0.77957,2.11072 0,0.56696 -0.12223,1.09387 -0.36667,1.58072 -0.24446,0.48686 -0.58033,0.8597 -1.0076,1.11853 -0.42729,0.25883 -0.91208,0.38825 -1.4544,0.38825 -0.9244,0 -1.6783,-0.33998 -2.2617,-1.01992 -0.5834,-0.67995 -0.8751,-1.80053 -0.8751,-3.36175 0,-1.74609 0.32251,-3.0156 0.96754,-3.80854 0.56286,-0.69021 1.32086,-1.03532 2.27403,-1.03533 0.71076,1e-5 1.29313,0.19927 1.74712,0.59778 0.45398,0.39853 0.72616,0.94906 0.81656,1.6516 z m -4.52958,3.89482 c 0,0.38209 0.0811,0.74774 0.24343,1.09696 0.16228,0.34922 0.38927,0.61524 0.68098,0.79806 0.29169,0.18283 0.59777,0.27424 0.91824,0.27424 0.46836,0 0.87098,-0.18899 1.20788,-0.56696 0.33689,-0.37798 0.50534,-0.89154 0.50534,-1.54068 0,-0.62448 -0.1664,-1.11646 -0.49918,-1.47596 -0.33279,-0.35948 -0.75185,-0.53923 -1.25718,-0.53923 -0.50124,0 -0.92646,0.17975 -1.27568,0.53923 -0.34922,0.3595 -0.52383,0.83094 -0.52383,1.41434 z"
           style=""
           id="path5118" />
      </g>
      <g
         style="font-size:12.62117386px;font-style:normal;font-variant:normal;font-weight:normal;font-stretch:normal;line-height:125%;letter-spacing:0px;word-spacing:0px;fill:#000000;fill-opacity:1;stroke:none;font-family:Arial;-inkscape-font-specification:Arial"
         id="text4865-1-7">
        <path
           d="m 193.3475,194.73361 -1.10929,0 0,-7.06859 c -0.26705,0.25473 -0.61729,0.50945 -1.05073,0.76417 -0.43345,0.25473 -0.82272,0.44577 -1.16783,0.57313 l 0,-1.07231 c 0.62037,-0.29169 1.16269,-0.64502 1.62695,-1.05998 0.46425,-0.41495 0.79292,-0.81757 0.98603,-1.20789 l 0.71487,0 z"
           style=""
           id="path5121" />
      </g>
    </g>
    <g
       id="g5016">
      <g
         style="font-size:12.62117386px;font-style:normal;font-variant:normal;font-weight:normal;font-stretch:normal;line-height:125%;letter-spacing:0px;word-spacing:0px;fill:#000000;fill-opacity:1;stroke:none;font-family:Arial;-inkscape-font-specification:Arial"
         id="text4865-2">
        <path
           d="m 9.7641663,175.29173 c -5e-7,-1.0682 0.1099006,-1.92789 0.3297037,-2.57909 0.219801,-0.65118 0.546423,-1.15344 0.979866,-1.50677 0.43344,-0.35332 0.978837,-0.52998 1.636193,-0.52999 0.484793,1e-5 0.910018,0.0976 1.275675,0.29272 0.365647,0.19516 0.667618,0.47659 0.905914,0.84429 0.238285,0.36772 0.425219,0.81554 0.560804,1.34347 0.135573,0.52794 0.203362,1.23973 0.203369,2.13537 -7e-6,1.05998 -0.108881,1.91557 -0.326622,2.56675 -0.217754,0.65119 -0.543349,1.15448 -0.976786,1.50986 -0.433446,0.35538 -0.980897,0.53307 -1.642354,0.53307 -0.870995,0 -1.555053,-0.31224 -2.052174,-0.93673 -0.595726,-0.75184 -0.8935892,-1.97616 -0.8935887,-3.67295 z m 1.1400967,0 c -2e-6,1.48315 0.17358,2.47021 0.520746,2.96116 0.347162,0.49097 0.775468,0.73645 1.28492,0.73645 0.509444,0 0.93775,-0.24651 1.284919,-0.73953 0.347159,-0.49301 0.520741,-1.47904 0.520747,-2.95808 -6e-6,-1.48726 -0.173588,-2.47534 -0.520747,-2.96425 -0.347169,-0.4889 -0.779583,-0.73336 -1.297245,-0.73336 -0.509451,0 -0.916188,0.2157 -1.220211,0.64708 -0.382088,0.55054 -0.573131,1.56738 -0.573129,3.05053 z"
           style=""
           id="path5124" />
      </g>
      <g
         style="font-size:12.62117386px;font-style:normal;font-variant:normal;font-weight:normal;font-stretch:normal;line-height:125%;letter-spacing:0px;word-spacing:0px;fill:#000000;fill-opacity:1;stroke:none;font-family:Arial;-inkscape-font-specification:Arial"
         id="text4865-1-78">
        <path
           d="m -0.70006861,140.94122 c -5.2e-7,-1.0682 0.10990054,-1.92789 0.32970352,-2.57909 0.21980127,-0.65118 0.54642312,-1.15344 0.97986653,-1.50677 0.43343976,-0.35332 0.97883656,-0.52998 1.63619226,-0.52999 0.4847937,1e-5 0.9100184,0.0976 1.2756752,0.29272 0.3656474,0.19516 0.6676186,0.47659 0.9059144,0.84429 0.2382845,0.36772 0.425219,0.81554 0.5608041,1.34347 0.1355727,0.52794 0.2033621,1.23973 0.2033685,2.13537 -6.4e-6,1.05998 -0.1088804,1.91557 -0.3266222,2.56675 -0.217754,0.65119 -0.5433487,1.15448 -0.9767851,1.50986 -0.4334467,0.35538 -0.9808978,0.53307 -1.6423549,0.53307 -0.8709951,0 -1.55505219,-0.31224 -2.05217334,-0.93673 -0.5957268,-0.75184 -0.89358949,-1.97616 -0.89358897,-3.67295 z m 1.14009628,0 c -1.67e-6,1.48315 0.17358038,2.47021 0.52074667,2.96116 0.34716196,0.49097 0.77546796,0.73645 1.28491936,0.73645 0.5094444,0 0.9377504,-0.24651 1.2849193,-0.73953 0.3471593,-0.49301 0.5207414,-1.47904 0.5207466,-2.95808 -5.2e-6,-1.48726 -0.1735873,-2.47534 -0.5207466,-2.96425 -0.3471689,-0.4889 -0.7795834,-0.73336 -1.2972447,-0.73336 -0.5094514,0 -0.916188,0.2157 -1.2202112,0.64708 -0.38208813,0.55054 -0.5731311,1.56738 -0.57312943,3.05053 z"
           style=""
           id="path5127" />
        <path
           d="m 6.9478207,145.39684 0,-1.26335 1.2633499,0 0,1.26335 z"
           style=""
           id="path5129" />
        <path
           d="m 15.655691,144.33069 0,1.06615 -5.9716396,0 c -0.00822,-0.26705 0.034922,-0.52383 0.1294164,-0.77034 0.1520121,-0.40674 0.3954382,-0.80731 0.7302782,-1.20172 0.334837,-0.39441 0.818607,-0.85045 1.451311,-1.36812 0.981917,-0.80525 1.645432,-1.44309 1.990547,-1.91351 0.345105,-0.47041 0.51766,-0.91515 0.517665,-1.33422 -5e-6,-0.4396 -0.157153,-0.81039 -0.471445,-1.11237 -0.314301,-0.30196 -0.724119,-0.45295 -1.229455,-0.45295 -0.534102,0 -0.961381,0.16023 -1.281838,0.48069 -0.320462,0.32046 -0.482745,0.76418 -0.486852,1.33113 l -1.1400964,-0.11709 c 0.07806,-0.85044 0.3718144,-1.49855 0.8812634,-1.94432 0.509447,-0.44576 1.193504,-0.66864 2.052174,-0.66865 0.866879,1e-5 1.55299,0.24035 2.058336,0.72103 0.505333,0.4807 0.758003,1.07642 0.758009,1.78718 -6e-6,0.36155 -0.07396,0.71693 -0.221856,1.06614 -0.14791,0.34923 -0.39339,0.71693 -0.736441,1.10312 -0.343061,0.3862 -0.913108,0.91619 -1.710144,1.58997 -0.665573,0.55876 -1.092852,0.93776 -1.281838,1.13702 -0.188991,0.19926 -0.345112,0.39955 -0.468364,0.60086 z"
           style=""
           id="path5131" />
      </g>
      <g
         style="font-size:12.62117386px;font-style:normal;font-variant:normal;font-weight:normal;font-stretch:normal;line-height:125%;letter-spacing:0px;word-spacing:0px;fill:#000000;fill-opacity:1;stroke:none;font-family:Arial;-inkscape-font-specification:Arial"
         id="text4865-1-9-0">
        <path
           d="m -0.75553275,108.27456 c -5.3e-7,-1.06819 0.10990053,-1.92789 0.32970351,-2.57908 0.21980127,-0.65119 0.54642312,-1.15344 0.97986653,-1.50678 0.43343974,-0.35332 0.97883661,-0.52998 1.63619221,-0.52999 0.4847937,1e-5 0.9100184,0.0976 1.2756753,0.29273 0.3656474,0.19516 0.6676185,0.47659 0.9059143,0.84429 0.2382845,0.36771 0.425219,0.81553 0.5608041,1.34346 0.1355727,0.52794 0.2033621,1.23973 0.2033686,2.13537 -6.5e-6,1.05998 -0.1088804,1.91557 -0.3266222,2.56676 -0.217754,0.65119 -0.5433487,1.15447 -0.9767852,1.50985 -0.4334467,0.35539 -0.9808978,0.53308 -1.6423549,0.53308 -0.8709951,0 -1.55505214,-0.31225 -2.05217329,-0.93673 -0.5957268,-0.75185 -0.89358949,-1.97617 -0.89358896,-3.67296 z m 1.14009627,0 c -1.67e-6,1.48315 0.17358038,2.47021 0.52074667,2.96117 0.34716191,0.49096 0.77546791,0.73644 1.28491931,0.73644 0.5094444,0 0.9377505,-0.24651 1.2849193,-0.73952 0.3471594,-0.49302 0.5207414,-1.47904 0.5207467,-2.95809 -5.3e-6,-1.48726 -0.1735873,-2.47534 -0.5207467,-2.96425 -0.3471688,-0.4889 -0.7795833,-0.73335 -1.2972447,-0.73336 -0.5094513,1e-5 -0.916188,0.2157 -1.22021111,0.64708 -0.38208817,0.55054 -0.57313114,1.56738 -0.57312947,3.05053 z"
           style=""
           id="path5134" />
        <path
           d="m 6.8923565,112.73018 0,-1.26335 1.2633499,0 0,1.26335 z"
           style=""
           id="path5136" />
        <path
           d="m 13.326197,112.73018 0,-2.1631 -3.9194663,0 0,-1.01685 4.1228343,-5.85454 0.905915,0 0,5.85454 1.220211,0 0,1.01685 -1.220211,0 0,2.1631 z m 0,-3.17995 0,-4.07353 -2.828671,4.07353 z"
           style=""
           id="path5138" />
      </g>
      <g
         style="font-size:12.62117386px;font-style:normal;font-variant:normal;font-weight:normal;font-stretch:normal;line-height:125%;letter-spacing:0px;word-spacing:0px;fill:#000000;fill-opacity:1;stroke:none;font-family:Arial;-inkscape-font-specification:Arial"
         id="text4865-1-6-4">
        <path
           d="m -0.78634609,73.924034 c -5.2e-7,-1.068192 0.10990054,-1.927886 0.32970352,-2.579082 0.21980127,-0.651183 0.54642311,-1.153441 0.97986652,-1.506776 0.43343974,-0.353318 0.97883655,-0.529982 1.63619225,-0.529991 0.4847937,9e-6 0.9100184,0.09759 1.2756753,0.292728 0.3656473,0.19516 0.6676185,0.476589 0.9059143,0.844287 0.2382845,0.367714 0.425219,0.815536 0.5608041,1.343465 0.1355727,0.527942 0.2033621,1.239732 0.2033685,2.135369 -6.4e-6,1.059985 -0.1088803,1.91557 -0.3266221,2.566758 -0.217754,0.651191 -0.5433488,1.154476 -0.9767852,1.509857 -0.4334467,0.355381 -0.9808978,0.533072 -1.6423549,0.533072 -0.8709951,0 -1.55505218,-0.312242 -2.05217332,-0.936728 -0.5957268,-0.751845 -0.89358949,-1.976164 -0.89358897,-3.672959 z m 1.14009627,0 c -1.66e-6,1.483156 0.17358039,2.470211 0.52074668,2.961169 0.34716194,0.490962 0.77546794,0.736442 1.28491934,0.736441 0.5094444,10e-7 0.9377504,-0.246506 1.2849193,-0.739522 0.3471593,-0.493013 0.5207414,-1.479041 0.5207467,-2.958088 -5.3e-6,-1.487254 -0.1735874,-2.475337 -0.5207467,-2.96425 -0.3471689,-0.488898 -0.7795833,-0.733351 -1.2972447,-0.733359 -0.5094514,8e-6 -0.916188,0.215702 -1.22021114,0.647082 -0.38208818,0.55054 -0.57313114,1.567381 -0.57312948,3.050527 z"
           style=""
           id="path5141" />
        <path
           d="m 6.8615432,78.379654 0,-1.26335 1.2633499,0 0,1.26335 z"
           style=""
           id="path5143" />
        <path
           d="m 15.495461,71.557564 -1.10312,0.08628 c -0.09861,-0.435489 -0.238295,-0.75184 -0.419062,-0.949053 -0.299922,-0.316343 -0.669683,-0.474519 -1.109283,-0.474527 -0.353331,8e-6 -0.663519,0.09861 -0.930565,0.295809 -0.349221,0.254732 -0.624488,0.626547 -0.8258,1.115446 -0.201316,0.488912 -0.306081,1.185294 -0.314297,2.089149 0.267048,-0.406732 0.59367,-0.708703 0.979867,-0.905914 0.386192,-0.1972 0.790874,-0.295803 1.214048,-0.295809 0.739518,6e-6 1.369138,0.272191 1.888863,0.816555 0.519713,0.544375 0.779572,1.247947 0.779579,2.110719 -7e-6,0.566969 -0.122233,1.093878 -0.36668,1.580728 -0.244459,0.486853 -0.580324,0.859695 -1.007598,1.118527 -0.427284,0.258833 -0.912081,0.388249 -1.454393,0.388249 -0.924405,0 -1.678306,-0.339974 -2.261705,-1.019924 -0.5834013,-0.679948 -0.8751013,-1.800528 -0.8751008,-3.361743 -5e-7,-1.746088 0.3225128,-3.015599 0.9675408,-3.808538 0.562857,-0.690212 1.320866,-1.035322 2.27403,-1.035331 0.710759,9e-6 1.293131,0.199269 1.747121,0.59778 0.453978,0.398529 0.726163,0.949061 0.816555,1.651599 z m -4.529572,3.894816 c -1e-6,0.382089 0.08114,0.747741 0.243426,1.096957 0.162282,0.34922 0.389274,0.615243 0.680977,0.798068 0.291697,0.182827 0.597777,0.27424 0.91824,0.274239 0.468359,10e-7 0.870988,-0.188988 1.207885,-0.566967 0.336889,-0.377976 0.505335,-0.891532 0.50534,-1.54067 -5e-6,-0.624482 -0.166397,-1.116469 -0.499177,-1.475963 -0.332789,-0.359485 -0.751851,-0.53923 -1.257187,-0.539235 -0.501235,5e-6 -0.926459,0.17975 -1.275676,0.539235 -0.34922,0.359494 -0.523829,0.830939 -0.523828,1.414336 z"
           style=""
           id="path5145" />
      </g>
      <g
         style="font-size:12.62117386px;font-style:normal;font-variant:normal;font-weight:normal;font-stretch:normal;line-height:125%;letter-spacing:0px;word-spacing:0px;fill:#000000;fill-opacity:1;stroke:none;font-family:Arial;-inkscape-font-specification:Arial"
         id="text4865-1-7-2">
        <path
           d="m 15.65569,11.362474 -1.109282,0 0,-7.0685964 c -0.267053,0.254731 -0.617299,0.5094549 -1.050738,0.7641726 -0.433444,0.2547303 -0.82272,0.4457732 -1.167828,0.5731295 l 0,-1.0723068 c 0.620375,-0.2916932 1.16269,-0.64502 1.626948,-1.0599814 0.464252,-0.4149457 0.792928,-0.8175739 0.986029,-1.2078858 l 0.714871,0 z"
           style=""
           id="path5148" />
      </g>
      <g
         style="font-size:12.62117386px;font-style:normal;font-variant:normal;font-weight:normal;font-stretch:normal;line-height:125%;letter-spacing:0px;word-spacing:0px;fill:#000000;fill-opacity:1;stroke:none;font-family:Arial;-inkscape-font-specification:Arial"
         id="text4865-1-4-6">
        <path
           d="m -0.8109969,40.247067 c -5.3e-7,-1.068193 0.10990054,-1.927886 0.32970351,-2.579083 0.21980127,-0.651182 0.54642312,-1.15344 0.97986653,-1.506776 0.43343974,-0.353318 0.97883656,-0.529981 1.63619226,-0.52999 0.4847937,9e-6 0.9100184,0.09758 1.2756752,0.292727 0.3656474,0.19516 0.6676186,0.476589 0.9059144,0.844288 0.2382845,0.367714 0.425219,0.815535 0.5608041,1.343464 0.1355727,0.527943 0.2033621,1.239732 0.2033685,2.13537 -6.4e-6,1.059985 -0.1088804,1.91557 -0.3266222,2.566757 -0.2177539,0.651191 -0.5433487,1.154477 -0.9767851,1.509857 -0.4334467,0.355382 -0.9808978,0.533072 -1.6423549,0.533072 -0.8709951,0 -1.55505219,-0.312242 -2.05217333,-0.936727 -0.5957268,-0.751846 -0.8935895,-1.976164 -0.89358897,-3.672959 z m 1.14009627,0 c -1.67e-6,1.483155 0.17358039,2.47021 0.52074667,2.961169 0.34716196,0.490961 0.77546796,0.736441 1.28491936,0.73644 0.5094444,10e-7 0.9377504,-0.246506 1.2849193,-0.739522 C 3.766844,42.712142 3.9404261,41.726114 3.9404313,40.247067 3.9404261,38.759812 3.766844,37.77173 3.4196847,37.282817 3.0725158,36.793918 2.6401013,36.549465 2.12244,36.549457 c -0.5094514,8e-6 -0.916188,0.215702 -1.22021115,0.647082 -0.38208818,0.55054 -0.57313115,1.567381 -0.57312948,3.050528 z"
           style=""
           id="path5151" />
        <path
           d="m 6.8368924,44.702686 0,-1.26335 1.2633499,0 0,1.26335 z"
           style=""
           id="path5153" />
        <path
           d="m 11.421928,39.803354 c -0.460149,-0.168442 -0.80115,-0.408786 -1.023005,-0.721034 -0.221858,-0.312237 -0.332786,-0.686106 -0.332785,-1.121608 -1e-6,-0.657346 0.236235,-1.209932 0.708708,-1.657762 0.472471,-0.447813 1.101063,-0.671723 1.885781,-0.671732 0.788819,9e-6 1.423575,0.229055 1.904269,0.687139 0.480683,0.4581 0.721028,1.015823 0.721034,1.673168 -6e-6,0.419069 -0.109907,0.783694 -0.329704,1.093876 -0.219808,0.310194 -0.553619,0.549511 -1.001436,0.717953 0.554637,0.180776 0.97678,0.472476 1.266432,0.875101 0.289639,0.402632 0.434462,0.883321 0.434469,1.442067 -7e-6,0.772392 -0.273219,1.421527 -0.819637,1.947408 -0.54643,0.525882 -1.265408,0.788823 -2.156939,0.788823 -0.891537,0 -1.610516,-0.263968 -2.156939,-0.791904 -0.5464251,-0.527936 -0.819637,-1.186315 -0.8196365,-1.97514 -5e-7,-0.587506 0.1489308,-1.079493 0.4467945,-1.475963 0.297862,-0.396461 0.722059,-0.666592 1.272594,-0.810392 z m -0.221857,-1.879618 c -2e-6,0.427285 0.137631,0.776504 0.4129,1.047656 0.275264,0.271163 0.632699,0.406742 1.072307,0.406737 0.427275,5e-6 0.777521,-0.134547 1.050737,-0.403656 0.273208,-0.269098 0.409814,-0.598801 0.409819,-0.989111 -5e-6,-0.40673 -0.14072,-0.748758 -0.422144,-1.026086 -0.281434,-0.277313 -0.631679,-0.415973 -1.050738,-0.415981 -0.423173,8e-6 -0.774446,0.135587 -1.053818,0.406737 -0.279377,0.271165 -0.419065,0.595733 -0.419063,0.973704 z m -0.357435,4.172136 c -2e-6,0.316353 0.07498,0.622433 0.224938,0.918239 0.149956,0.29581 0.37284,0.524857 0.668651,0.687139 0.295806,0.162285 0.614211,0.243427 0.955216,0.243426 0.529986,10e-7 0.967536,-0.1705 1.312651,-0.511502 0.345105,-0.341 0.51766,-0.774442 0.517665,-1.300326 -5e-6,-0.534096 -0.177696,-0.975755 -0.533072,-1.324977 -0.355386,-0.349214 -0.800125,-0.523824 -1.334221,-0.523828 -0.521776,4e-6 -0.954191,0.172559 -1.297244,0.517665 -0.343058,0.345114 -0.514586,0.776501 -0.514584,1.294164 z"
           style=""
           id="path5155" />
      </g>
    </g>
  </g>
</svg>
