<svg xmlns="http://www.w3.org/2000/svg" viewBox="0 0 800 500" role="img" aria-label="Language effects project diagram">
  <rect width="800" height="500" rx="28" fill="#f7fbff"/>
  <text x="400" y="54" text-anchor="middle" font-family="Arial, sans-serif" font-size="30" font-weight="700" fill="#003366">Language Effects</text>
  <rect x="52" y="110" width="170" height="90" rx="14" fill="#e6f0ff" stroke="#0066cc" stroke-width="4"/>
  <text x="137" y="148" text-anchor="middle" font-family="Arial, sans-serif" font-size="26" font-weight="700" fill="#003366">EN</text>
  <text x="137" y="177" text-anchor="middle" font-family="Arial, sans-serif" font-size="18" fill="#003366">prompt</text>
  <rect x="315" y="110" width="170" height="90" rx="14" fill="#fff4e6" stroke="#e07000" stroke-width="4"/>
  <text x="400" y="148" text-anchor="middle" font-family="Arial, sans-serif" font-size="26" font-weight="700" fill="#7a3f00">ZH</text>
  <text x="400" y="177" text-anchor="middle" font-family="Arial, sans-serif" font-size="18" fill="#7a3f00">prompt</text>
  <rect x="578" y="110" width="170" height="90" rx="14" fill="#e8f8e8" stroke="#1a8a3a" stroke-width="4"/>
  <text x="663" y="148" text-anchor="middle" font-family="Arial, sans-serif" font-size="26" font-weight="700" fill="#0d5c25">MS</text>
  <text x="663" y="177" text-anchor="middle" font-family="Arial, sans-serif" font-size="18" fill="#0d5c25">prompt</text>
  <path d="M137 215 L342 290 M400 215 L400 290 M663 215 L458 290" stroke="#0066cc" stroke-width="5" fill="none" stroke-linecap="round"/>
  <rect x="290" y="288" width="220" height="86" rx="14" fill="white" stroke="#003366" stroke-width="4"/>
  <text x="400" y="322" text-anchor="middle" font-family="Arial, sans-serif" font-size="21" font-weight="700" fill="#003366">same problem set</text>
  <text x="400" y="350" text-anchor="middle" font-family="Arial, sans-serif" font-size="18" fill="#003366">compare answers</text>
  <rect x="120" y="405" width="560" height="45" rx="12" fill="#eef5ff" stroke="#0066cc" stroke-width="3"/>
  <text x="400" y="434" text-anchor="middle" font-family="Arial, sans-serif" font-size="20" fill="#003366">correctness | proof gaps | consistency | self-correction</text>
</svg>
