<svg xmlns="http://www.w3.org/2000/svg" viewBox="0 0 800 500" role="img" aria-label="Theorem retrieval project diagram">
  <rect width="800" height="500" rx="28" fill="#f7fbff"/>
  <text x="400" y="54" text-anchor="middle" font-family="Arial, sans-serif" font-size="30" font-weight="700" fill="#003366">Theorem Retrieval</text>
  <defs><marker id="arrow" markerWidth="10" markerHeight="10" refX="8" refY="3" orient="auto"><path d="M0,0 L0,6 L9,3 z" fill="#0066cc"/></marker></defs>
  <rect x="70" y="145" width="180" height="86" rx="14" fill="#e6f0ff" stroke="#0066cc" stroke-width="4"/>
  <text x="160" y="180" text-anchor="middle" font-family="Arial, sans-serif" font-size="22" font-weight="700" fill="#003366">query</text>
  <text x="160" y="208" text-anchor="middle" font-family="Arial, sans-serif" font-size="18" fill="#003366">"finite subgroup"</text>
  <path d="M250 188 H320" stroke="#0066cc" stroke-width="6" marker-end="url(#arrow)"/>
  <circle cx="400" cy="188" r="68" fill="#fff4e6" stroke="#e07000" stroke-width="4"/>
  <text x="400" y="181" text-anchor="middle" font-family="Arial, sans-serif" font-size="22" font-weight="700" fill="#7a3f00">index</text>
  <text x="400" y="210" text-anchor="middle" font-family="Arial, sans-serif" font-size="18" fill="#7a3f00">keyword + vector</text>
  <path d="M468 188 H535" stroke="#0066cc" stroke-width="6" marker-end="url(#arrow)"/>
  <rect x="545" y="105" width="190" height="52" rx="10" fill="white" stroke="#1a8a3a" stroke-width="4"/>
  <text x="640" y="138" text-anchor="middle" font-family="Arial, sans-serif" font-size="18" fill="#0d5c25">lemma 1</text>
  <rect x="545" y="180" width="190" height="52" rx="10" fill="white" stroke="#1a8a3a" stroke-width="4"/>
  <text x="640" y="213" text-anchor="middle" font-family="Arial, sans-serif" font-size="18" fill="#0d5c25">lemma 2</text>
  <rect x="545" y="255" width="190" height="52" rx="10" fill="white" stroke="#1a8a3a" stroke-width="4"/>
  <text x="640" y="288" text-anchor="middle" font-family="Arial, sans-serif" font-size="18" fill="#0d5c25">lemma 3</text>
  <rect x="130" y="375" width="540" height="46" rx="12" fill="#eef5ff" stroke="#0066cc" stroke-width="3"/>
  <text x="400" y="405" text-anchor="middle" font-family="Arial, sans-serif" font-size="20" fill="#003366">Evaluate top-k relevance and proof success improvement.</text>
</svg>
