<svg xmlns="http://www.w3.org/2000/svg" width="900" height="520" viewBox="0 0 900 520">
  <rect width="900" height="520" fill="#ffffff"/>
  <text x="450" y="50" text-anchor="middle" font-family="Arial, sans-serif" font-size="30" font-weight="700" fill="#003366">What Goes Into Agent Context?</text>
  <g font-family="Arial, sans-serif" text-anchor="middle">
    <rect x="335" y="195" width="230" height="120" rx="20" fill="#e6f0ff" stroke="#0066cc" stroke-width="4"/>
    <text x="450" y="246" font-size="25" font-weight="700" fill="#003366">Agent</text>
    <text x="450" y="278" font-size="18" fill="#333">model + harness</text>
    <rect x="80" y="90" width="210" height="74" rx="12" fill="#fff4e6" stroke="#e07000" stroke-width="3"/>
    <text x="185" y="120" font-size="21" font-weight="700" fill="#7a3f00">Task Prompt</text>
    <text x="185" y="146" font-size="16" fill="#333">what should change?</text>
    <rect x="345" y="80" width="210" height="74" rx="12" fill="#e8f8e8" stroke="#1a8a3a" stroke-width="3"/>
    <text x="450" y="110" font-size="21" font-weight="700" fill="#0f5f28">Instructions</text>
    <text x="450" y="136" font-size="16" fill="#333">AGENTS.md / CLAUDE.md</text>
    <rect x="610" y="90" width="210" height="74" rx="12" fill="#f8f8ff" stroke="#5b5fc7" stroke-width="3"/>
    <text x="715" y="120" font-size="21" font-weight="700" fill="#33338a">Repo Files</text>
    <text x="715" y="146" font-size="16" fill="#333">source, tests, docs</text>
    <rect x="95" y="360" width="210" height="74" rx="12" fill="#e6f0ff" stroke="#0066cc" stroke-width="3"/>
    <text x="200" y="390" font-size="21" font-weight="700" fill="#003366">Tool Output</text>
    <text x="200" y="416" font-size="16" fill="#333">shell, search, tests</text>
    <rect x="345" y="370" width="210" height="74" rx="12" fill="#fff4e6" stroke="#e07000" stroke-width="3"/>
    <text x="450" y="400" font-size="21" font-weight="700" fill="#7a3f00">Conversation</text>
    <text x="450" y="426" font-size="16" fill="#333">decisions so far</text>
    <rect x="595" y="360" width="210" height="74" rx="12" fill="#e8f8e8" stroke="#1a8a3a" stroke-width="3"/>
    <text x="700" y="390" font-size="21" font-weight="700" fill="#0f5f28">External Docs</text>
    <text x="700" y="416" font-size="16" fill="#333">when allowed</text>
  </g>
  <g stroke="#0066cc" stroke-width="3.5" fill="none" marker-end="url(#arrow)">
    <path d="M245 164 L358 211"/>
    <path d="M450 154 L450 195"/>
    <path d="M655 164 L543 211"/>
    <path d="M245 360 L360 304"/>
    <path d="M450 370 L450 315"/>
    <path d="M655 360 L542 304"/>
  </g>
  <defs>
    <marker id="arrow" viewBox="0 0 10 10" refX="8" refY="5" markerWidth="8" markerHeight="8" orient="auto-start-reverse"><path d="M0 0 L10 5 L0 10 z" fill="#0066cc"/></marker>
  </defs>
</svg>
