<svg xmlns="http://www.w3.org/2000/svg" width="900" height="520" viewBox="0 0 900 520">
  <rect width="900" height="520" fill="#ffffff"/>
  <text x="450" y="48" text-anchor="middle" font-family="Arial, sans-serif" font-size="30" font-weight="700" fill="#003366">Project Engineering Stack</text>
  <g font-family="Arial, sans-serif" font-size="22" font-weight="700" text-anchor="middle">
    <rect x="110" y="85" width="680" height="58" rx="12" fill="#e6f0ff" stroke="#0066cc" stroke-width="3"/>
    <text x="450" y="122" fill="#003366">Research Question</text>
    <rect x="145" y="168" width="610" height="58" rx="12" fill="#e8f8e8" stroke="#1a8a3a" stroke-width="3"/>
    <text x="450" y="205" fill="#0f5f28">Repository: Code + Notes + Data Pointers</text>
    <rect x="180" y="251" width="540" height="58" rx="12" fill="#fff4e6" stroke="#e07000" stroke-width="3"/>
    <text x="450" y="288" fill="#7a3f00">Issues: Tasks + Decisions + Questions</text>
    <rect x="215" y="334" width="470" height="58" rx="12" fill="#f8f8ff" stroke="#5b5fc7" stroke-width="3"/>
    <text x="450" y="371" fill="#33338a">Branches and Pull Requests</text>
    <rect x="250" y="417" width="400" height="58" rx="12" fill="#e6f0ff" stroke="#0066cc" stroke-width="3"/>
    <text x="450" y="454" fill="#003366">Reproducible Result</text>
  </g>
  <g stroke="#0066cc" stroke-width="4" fill="none" marker-end="url(#arrow)">
    <path d="M450 143 L450 168"/>
    <path d="M450 226 L450 251"/>
    <path d="M450 309 L450 334"/>
    <path d="M450 392 L450 417"/>
  </g>
  <defs>
    <marker id="arrow" viewBox="0 0 10 10" refX="8" refY="5" markerWidth="8" markerHeight="8" orient="auto-start-reverse">
      <path d="M 0 0 L 10 5 L 0 10 z" fill="#0066cc"/>
    </marker>
  </defs>
</svg>
