<svg xmlns="http://www.w3.org/2000/svg" width="900" height="520" viewBox="0 0 900 520">
  <rect width="900" height="520" fill="#ffffff"/>
  <text x="450" y="52" text-anchor="middle" font-family="Arial, sans-serif" font-size="30" font-weight="700" fill="#003366">A Practical AI-Assisted Project Loop</text>
  <g font-family="Arial, sans-serif" text-anchor="middle">
    <rect x="80" y="150" width="115" height="72" rx="12" fill="#e6f0ff" stroke="#0066cc" stroke-width="3"/>
    <text x="137.5" y="180" font-size="19" font-weight="700" fill="#003366">Issue</text>
    <text x="137.5" y="205" font-size="15" fill="#333">scope</text>
    <rect x="235" y="150" width="115" height="72" rx="12" fill="#fff4e6" stroke="#e07000" stroke-width="3"/>
    <text x="292.5" y="180" font-size="19" font-weight="700" fill="#7a3f00">Plan</text>
    <text x="292.5" y="205" font-size="15" fill="#333">agent reads</text>
    <rect x="390" y="150" width="115" height="72" rx="12" fill="#e8f8e8" stroke="#1a8a3a" stroke-width="3"/>
    <text x="447.5" y="180" font-size="19" font-weight="700" fill="#0f5f28">Patch</text>
    <text x="447.5" y="205" font-size="15" fill="#333">small change</text>
    <rect x="545" y="150" width="115" height="72" rx="12" fill="#f8f8ff" stroke="#5b5fc7" stroke-width="3"/>
    <text x="602.5" y="180" font-size="19" font-weight="700" fill="#33338a">Test</text>
    <text x="602.5" y="205" font-size="15" fill="#333">run checks</text>
    <rect x="700" y="150" width="115" height="72" rx="12" fill="#e6f0ff" stroke="#0066cc" stroke-width="3"/>
    <text x="757.5" y="180" font-size="19" font-weight="700" fill="#003366">PR</text>
    <text x="757.5" y="205" font-size="15" fill="#333">review</text>
    <rect x="300" y="325" width="300" height="76" rx="14" fill="#e8f8e8" stroke="#1a8a3a" stroke-width="3"/>
    <text x="450" y="356" font-size="21" font-weight="700" fill="#0f5f28">Research Log</text>
    <text x="450" y="383" font-size="17" fill="#333">record decisions, failures, next steps</text>
  </g>
  <g stroke="#0066cc" stroke-width="4" fill="none" marker-end="url(#arrow)">
    <path d="M195 186 L235 186"/>
    <path d="M350 186 L390 186"/>
    <path d="M505 186 L545 186"/>
    <path d="M660 186 L700 186"/>
    <path d="M757 222 C735 315 620 355 600 363"/>
    <path d="M300 363 C180 335 135 265 137 222"/>
  </g>
  <defs>
    <marker id="arrow" viewBox="0 0 10 10" refX="8" refY="5" markerWidth="8" markerHeight="8" orient="auto-start-reverse"><path d="M0 0 L10 5 L0 10 z" fill="#0066cc"/></marker>
  </defs>
</svg>
